<mxfile host="app.diagrams.net" modified="2021-06-23T12:45:50.698Z" agent="5.0 (Windows)" etag="XWtYpK5_uvWrt77-mxQg" version="14.8.0" type="github">
  <diagram id="QoHOp6olMjTj3RLAdfJM" name="Page-1">
    <mxGraphModel dx="779" dy="1568" grid="1" gridSize="10" guides="1" tooltips="1" connect="1" arrows="0" fold="1" page="1" pageScale="1" pageWidth="850" pageHeight="1100" math="0" shadow="0">
      <root>
        <mxCell id="0" />
        <mxCell id="1" parent="0" />
        <mxCell id="9cUjn1KHS1yXxGMh0hnf-55" value="" style="rounded=0;whiteSpace=wrap;html=1;" vertex="1" parent="1">
          <mxGeometry x="50" y="-1050" width="390" height="500" as="geometry" />
        </mxCell>
        <mxCell id="9cUjn1KHS1yXxGMh0hnf-56" value="&lt;div&gt;Petugas &lt;br&gt;&lt;/div&gt;&lt;div&gt;Perpustakaan&lt;/div&gt;" style="shape=umlActor;verticalLabelPosition=bottom;verticalAlign=top;html=1;" vertex="1" parent="1">
          <mxGeometry x="80" y="-855" width="40" height="100" as="geometry" />
        </mxCell>
        <mxCell id="9cUjn1KHS1yXxGMh0hnf-57" value="" style="verticalLabelPosition=bottom;verticalAlign=top;html=1;shape=mxgraph.basic.rect;fillColor2=none;strokeWidth=1;size=20;indent=5;" vertex="1" parent="1">
          <mxGeometry x="175" y="-1025" width="240" height="450" as="geometry" />
        </mxCell>
        <mxCell id="9cUjn1KHS1yXxGMh0hnf-58" value="Login" style="ellipse;whiteSpace=wrap;html=1;align=center;" vertex="1" parent="1">
          <mxGeometry x="250" y="-1015" width="100" height="40" as="geometry" />
        </mxCell>
        <mxCell id="9cUjn1KHS1yXxGMh0hnf-59" value="&amp;lt;&amp;lt;extend&amp;gt;&amp;gt;" style="html=1;verticalAlign=bottom;endArrow=open;dashed=1;endSize=8;exitX=0.5;exitY=1;exitDx=0;exitDy=0;" edge="1" parent="1" source="9cUjn1KHS1yXxGMh0hnf-58">
          <mxGeometry x="0.5" relative="1" as="geometry">
            <mxPoint x="310" y="-935" as="sourcePoint" />
            <mxPoint x="300" y="-935" as="targetPoint" />
            <Array as="points">
              <mxPoint x="300" y="-955" />
            </Array>
            <mxPoint as="offset" />
          </mxGeometry>
        </mxCell>
        <mxCell id="9cUjn1KHS1yXxGMh0hnf-60" value="memasukkan data buku" style="ellipse;whiteSpace=wrap;html=1;align=center;" vertex="1" parent="1">
          <mxGeometry x="225" y="-935" width="150" height="40" as="geometry" />
        </mxCell>
        <mxCell id="9cUjn1KHS1yXxGMh0hnf-61" value="pendaftaran anggota perpustakaan" style="ellipse;whiteSpace=wrap;html=1;align=center;" vertex="1" parent="1">
          <mxGeometry x="225" y="-875" width="150" height="40" as="geometry" />
        </mxCell>
        <mxCell id="9cUjn1KHS1yXxGMh0hnf-62" value="memasukkan data petugas perpustakaan" style="ellipse;whiteSpace=wrap;html=1;align=center;" vertex="1" parent="1">
          <mxGeometry x="220" y="-815" width="150" height="50" as="geometry" />
        </mxCell>
        <mxCell id="9cUjn1KHS1yXxGMh0hnf-63" value="peminjaman" style="ellipse;whiteSpace=wrap;html=1;align=center;" vertex="1" parent="1">
          <mxGeometry x="220" y="-755" width="150" height="40" as="geometry" />
        </mxCell>
        <mxCell id="9cUjn1KHS1yXxGMh0hnf-64" value="pengembalian" style="ellipse;whiteSpace=wrap;html=1;align=center;" vertex="1" parent="1">
          <mxGeometry x="220" y="-675" width="150" height="40" as="geometry" />
        </mxCell>
        <mxCell id="9cUjn1KHS1yXxGMh0hnf-65" value="Log Out" style="ellipse;whiteSpace=wrap;html=1;align=center;" vertex="1" parent="1">
          <mxGeometry x="245" y="-625" width="100" height="40" as="geometry" />
        </mxCell>
        <mxCell id="9cUjn1KHS1yXxGMh0hnf-66" value="&amp;lt;&amp;lt;include&amp;gt;&amp;gt;" style="html=1;verticalAlign=bottom;endArrow=open;dashed=1;endSize=8;exitX=0.5;exitY=1;exitDx=0;exitDy=0;entryX=0.5;entryY=0;entryDx=0;entryDy=0;" edge="1" parent="1" source="9cUjn1KHS1yXxGMh0hnf-63" target="9cUjn1KHS1yXxGMh0hnf-64">
          <mxGeometry x="0.5" relative="1" as="geometry">
            <mxPoint x="300" y="-695" as="sourcePoint" />
            <mxPoint x="300" y="-655" as="targetPoint" />
            <Array as="points" />
            <mxPoint as="offset" />
          </mxGeometry>
        </mxCell>
        <mxCell id="9cUjn1KHS1yXxGMh0hnf-67" value="" style="endArrow=classic;html=1;" edge="1" parent="1" source="9cUjn1KHS1yXxGMh0hnf-56">
          <mxGeometry width="50" height="50" relative="1" as="geometry">
            <mxPoint x="120" y="-845" as="sourcePoint" />
            <mxPoint x="250" y="-995" as="targetPoint" />
          </mxGeometry>
        </mxCell>
        <mxCell id="9cUjn1KHS1yXxGMh0hnf-68" value="" style="endArrow=classic;html=1;entryX=0;entryY=0.5;entryDx=0;entryDy=0;" edge="1" parent="1" source="9cUjn1KHS1yXxGMh0hnf-56" target="9cUjn1KHS1yXxGMh0hnf-60">
          <mxGeometry width="50" height="50" relative="1" as="geometry">
            <mxPoint x="130" y="-835" as="sourcePoint" />
            <mxPoint x="260" y="-985" as="targetPoint" />
          </mxGeometry>
        </mxCell>
        <mxCell id="9cUjn1KHS1yXxGMh0hnf-69" value="" style="endArrow=classic;html=1;entryX=0;entryY=0.5;entryDx=0;entryDy=0;" edge="1" parent="1" source="9cUjn1KHS1yXxGMh0hnf-56" target="9cUjn1KHS1yXxGMh0hnf-61">
          <mxGeometry width="50" height="50" relative="1" as="geometry">
            <mxPoint x="130" y="-829.4000000000001" as="sourcePoint" />
            <mxPoint x="235" y="-905" as="targetPoint" />
          </mxGeometry>
        </mxCell>
        <mxCell id="9cUjn1KHS1yXxGMh0hnf-70" value="" style="endArrow=classic;html=1;entryX=0;entryY=0.5;entryDx=0;entryDy=0;" edge="1" parent="1" source="9cUjn1KHS1yXxGMh0hnf-56" target="9cUjn1KHS1yXxGMh0hnf-62">
          <mxGeometry width="50" height="50" relative="1" as="geometry">
            <mxPoint x="130" y="-819.8" as="sourcePoint" />
            <mxPoint x="235" y="-845" as="targetPoint" />
          </mxGeometry>
        </mxCell>
        <mxCell id="9cUjn1KHS1yXxGMh0hnf-71" value="" style="endArrow=classic;html=1;entryX=0;entryY=0.5;entryDx=0;entryDy=0;" edge="1" parent="1" source="9cUjn1KHS1yXxGMh0hnf-56" target="9cUjn1KHS1yXxGMh0hnf-63">
          <mxGeometry width="50" height="50" relative="1" as="geometry">
            <mxPoint x="130" y="-809.1666666666667" as="sourcePoint" />
            <mxPoint x="230" y="-780" as="targetPoint" />
          </mxGeometry>
        </mxCell>
        <mxCell id="9cUjn1KHS1yXxGMh0hnf-72" value="" style="endArrow=classic;html=1;entryX=0;entryY=0.5;entryDx=0;entryDy=0;" edge="1" parent="1" source="9cUjn1KHS1yXxGMh0hnf-56" target="9cUjn1KHS1yXxGMh0hnf-64">
          <mxGeometry width="50" height="50" relative="1" as="geometry">
            <mxPoint x="130" y="-800" as="sourcePoint" />
            <mxPoint x="227" y="-647" as="targetPoint" />
          </mxGeometry>
        </mxCell>
        <mxCell id="9cUjn1KHS1yXxGMh0hnf-73" value="" style="endArrow=classic;html=1;entryX=0;entryY=0.5;entryDx=0;entryDy=0;" edge="1" parent="1" target="9cUjn1KHS1yXxGMh0hnf-65">
          <mxGeometry width="50" height="50" relative="1" as="geometry">
            <mxPoint x="120" y="-770" as="sourcePoint" />
            <mxPoint x="240" y="-715" as="targetPoint" />
          </mxGeometry>
        </mxCell>
      </root>
    </mxGraphModel>
  </diagram>
</mxfile>
